<svg xmlns="http://www.w3.org/2000/svg" width="28" height="28" viewBox="0 0 28 28">
  <g id="功能模块" transform="translate(-189 -485)">
    <rect id="矩形_4795" data-name="矩形 4795" width="28" height="28" transform="translate(189 485)" fill="#de8282" opacity="0"/>
    <path id="路径_38248" data-name="路径 38248" d="M139.329,141.258a3.4,3.4,0,0,1-3.395,3.395h-6.45a3.4,3.4,0,0,1-3.395-3.395v-6.45a3.4,3.4,0,0,1,3.395-3.395h6.45a3.4,3.4,0,0,1,3.395,3.395v6.45Zm14.753,14.753a3.4,3.4,0,0,1-3.395,3.395h-6.45a3.4,3.4,0,0,1-3.395-3.395v-6.45a3.4,3.4,0,0,1,3.395-3.395h6.45a3.4,3.4,0,0,1,3.395,3.395Zm-14.76,0a3.4,3.4,0,0,1-3.395,3.395h-6.45a3.4,3.4,0,0,1-3.395-3.395v-6.45a3.4,3.4,0,0,1,3.395-3.395h6.45a3.4,3.4,0,0,1,3.395,3.395v6.45Zm11.021-21.647a.783.783,0,0,1,.782.782v5.776a.783.783,0,0,1-.782.782h-5.776a.783.783,0,0,1-.782-.782v-5.776a.783.783,0,0,1,.782-.782h5.776m.337-2.95h-6.45a3.4,3.4,0,0,0-3.395,3.395v6.45a3.4,3.4,0,0,0,3.395,3.395h6.45a3.4,3.4,0,0,0,3.395-3.395v-6.45a3.4,3.4,0,0,0-3.395-3.395Z" transform="translate(62.918 353.591)" fill="#a6c5f6"/>
  </g>
</svg>
