<?xml version="1.0" standalone="no"?><!DOCTYPE svg PUBLIC "-//W3C//DTD SVG 1.1//EN" "http://www.w3.org/Graphics/SVG/1.1/DTD/svg11.dtd"><svg class="icon" width="200px" height="200.00px" viewBox="0 0 1024 1024" version="1.1" xmlns="http://www.w3.org/2000/svg"><path d="M750.037333 0H103.253333C69.930667 0 42.666667 28.8 42.666667 64v768c0 35.2 27.306667 64 60.629333 64H565.333333a205.269333 205.269333 0 0 1-76.629333-161.322667c0-111.530667 85.674667-201.898667 191.317333-201.898666 50.56 0 96.426667 20.864 130.645334 54.698666V64c0-35.2-27.306667-64-60.629334-64z" fill="#3396FB" /><path d="M682.666667 426.666667a298.666667 298.666667 0 1 0 0 597.333333 298.666667 298.666667 0 0 0 0-597.333333z" fill="#65AFE7" /><path d="M436.224 894.08a298.666667 298.666667 0 1 0 376.448-437.76c-5.973333 82.005333 3.029333 259.413333-2.005333 437.76-204.288 10.752-295.466667 4.309333-374.442667 0z" fill="#BBE2FF" /><path d="M325.717333 379.946667v-30.293334h73.813334c14.890667 0 27.008-9.642667 27.008-21.632 0-11.946667-12.074667-21.632-27.050667-21.632H336.042667L406.186667 250.24c10.538667-8.448 10.538667-22.144 0-30.592a32 32 0 0 0-38.229334 0L298.154667 275.626667l-69.973334-55.893334a32 32 0 0 0-38.186666 0c-10.538667 8.405333-10.538667 22.101333 0 30.549334l70.186666 56.149333H197.717333c-14.933333 0-27.050667 9.642667-27.050666 21.632 0 11.946667 12.074667 21.632 27.050666 21.632h73.898667v30.293333H197.717333c-14.933333 0-27.050667 9.6-27.050666 21.589334 0 11.946667 12.074667 21.632 27.050666 21.632h73.898667v67.157333c0 11.946667 12.074667 21.632 27.050667 21.632 14.933333 0 27.050667-9.642667 27.050666-21.632V423.253333h73.898667c14.933333 0 27.050667-9.685333 27.050667-21.632s-12.074667-21.674667-27.008-21.674666H325.717333z" fill="#FFB541" /><path d="M512 640h256v54.186667h-256zM512 725.333333h256v54.186667h-256z" fill="#FFFFFF" /></svg>