<?xml version="1.0" standalone="no"?><!DOCTYPE svg PUBLIC "-//W3C//DTD SVG 1.1//EN" "http://www.w3.org/Graphics/SVG/1.1/DTD/svg11.dtd"><svg class="icon" width="200px" height="200.00px" viewBox="0 0 1024 1024" version="1.1" xmlns="http://www.w3.org/2000/svg"><path d="M30.819128 89.091116c0-1.609137 2.486849-3.267037 2.486849-4.876174 0 1.609137 0 3.267037-2.486849 4.876174z m-5.656362 28.428096v2.389325a107.617165 107.617165 0 0 0 0-2.389325z m807.494451-39.253202l0.633903 99.912809 153.404441-1.219043-0.585141-67.778822C985.476517 49.74039 933.78907-0.240395 873.129463 0.344746h-7.119214c6.534073 0 15.457472 2.974466 21.942784 4.193509-32.670367 7.119214-55.247054 38.6193-55.247054 73.727755z" fill="#BBE2FF" /><path d="M832.705979 78.26601c0-35.108454 21.942784-66.023399 55.295815-73.727755-6.534073-1.219044-15.457472-4.19351-21.991545-4.193509L136.339538 6.34244C87.577796 6.927581 44.764986 40.231851 30.526557 84.214942c0 0.585141-0.633903 1.170282-0.633902 1.804185-0.585141 1.170282-0.585141 2.340564-1.170282 3.559607a124.683775 124.683775 0 0 0-3.559607 30.329803L25.747907 185.298034l807.494451-6.534074-0.536379-100.49795z" fill="#65AFE7" /><path d="M898.095475 1012.492229a131.900513 131.900513 0 0 1-21.991546 1.755423h7.119215c60.659607-0.585141 111.810675-51.151068 111.176772-110.591632l-0.585141-67.778821-153.404441 1.170281 0.585141 104.642699c0.633903 35.108454 23.79573 63.634074 57.1 70.80205z" fill="#BBE2FF" /><path d="M33.062168 844.31298L26.235524 167.402474l808.177116-5.753885 6.826643 676.910505z" fill="#3396FB" /><path d="M33.452262 911.360375c0.633903 59.489326 52.370111 109.42135 112.980957 108.836209l729.67071-5.948932c6.534073 0 15.457472-0.585141 21.991546-1.755423a71.045858 71.045858 0 0 1-56.466098-70.80205l-0.633902-104.642699-807.494451 6.534074v67.778821z" fill="#65AFE7" /><path d="M218.259265 334.801535h-1.804185A45.689752 45.689752 0 0 1 170.667804 289.5994C170.667804 264.633388 190.903927 243.812124 215.869939 243.812124h1.755423c25.014774 0 45.836038 20.236123 45.836038 45.202135a45.689752 45.689752 0 0 1-45.202135 45.787276z" fill="#FFFFFF" /><path d="M599.234757 710.461998h-49.054313a38.424253 38.424253 0 0 1-38.277967-38.277968c0-21.016311 17.261657-38.277968 38.277967-38.277968h49.054313c21.016311 0 38.277968 17.261657 38.277967 38.277968a38.034159 38.034159 0 0 1-38.277967 38.277968zM404.090264 710.461998H208.945772A38.424253 38.424253 0 0 1 170.667804 672.18403c0-21.016311 17.261657-38.277968 38.277968-38.277968h195.144492c21.016311 0 38.277968 17.261657 38.277968 38.277968a38.424253 38.424253 0 0 1-38.277968 38.277968z" fill="#FFB541" /><path d="M404.090264 629.029888H208.945772a43.300427 43.300427 0 0 0-43.154142 43.154142c0 23.698207 19.455935 43.154142 43.154142 43.154142h195.144492a43.300427 43.300427 0 0 0 43.154142-43.056619 43.300427 43.300427 0 0 0-43.154142-43.251665z m-195.144492 9.752348h195.144492c18.334415 0 33.401793 15.067378 33.401794 33.401794a33.499317 33.499317 0 0 1-33.401794 33.401793H208.945772a33.548079 33.548079 0 0 1-33.401793-33.401793c0-18.334415 15.067378-33.401793 33.401793-33.401794zM599.234757 629.029888h-49.054313a43.300427 43.300427 0 0 0-43.154142 43.154142c0 23.698207 19.455935 43.154142 43.154142 43.154142h49.054313a42.910333 42.910333 0 0 0 43.154142-43.154142 43.300427 43.300427 0 0 0-43.154142-43.154142z m-49.054313 9.752348h49.054313c18.334415 0 33.401793 15.067378 33.401793 33.401794a33.157985 33.157985 0 0 1-33.401793 33.401793h-49.054313a33.548079 33.548079 0 0 1-33.401793-33.401793c0-18.334415 15.067378-33.401793 33.401793-33.401794z" fill="#FFFFFF" /><path d="M208.945772 438.859093h411.061487a38.277968 38.277968 0 0 1 0 76.555936h-411.061487a38.277968 38.277968 0 0 1 0-76.555936z" fill="#FFB541" /><path d="M620.007259 433.982919h-411.061487a43.154142 43.154142 0 0 0 0 86.308284h411.061487a43.154142 43.154142 0 0 0 0-86.308284z m-411.061487 9.752349h411.061487a33.401793 33.401793 0 1 1 0 66.803586h-411.061487a33.401793 33.401793 0 1 1 0-66.803586z" fill="#FFFFFF" /></svg>