<svg xmlns="http://www.w3.org/2000/svg" width="180" height="60" viewBox="0 0 180 60">
  <g id="组_23013" data-name="组 23013" transform="translate(9583 -452)">
    <rect id="矩形_7307" data-name="矩形 7307" width="180" height="60" transform="translate(-9583 452)" fill="none"/>
    <g id="矢量智能对象" transform="translate(-9547 467)">
      <path id="路径_9" data-name="路径 9" d="M61.894,33.962,74.043,27.75l12.148,6.212L74.043,40.436Z" transform="translate(-60.624 -27.75)" fill="#fff" opacity="0.2"/>
      <path id="路径_10" data-name="路径 10" d="M75.161,42.345l12.3-6.555V51.461l-12.3,6.289Z" transform="translate(-60.624 -27.75)" fill="#fff" opacity="0.5"/>
      <path id="路径_11" data-name="路径 11" d="M60.624,51.453V35.79l12.3,6.555v15.4Z" transform="translate(-60.624 -27.75)" fill="#fff"/>
      <g id="组_4" data-name="组 4" transform="translate(43.944 5.517)">
        <g id="组_3" data-name="组 3">
          <path id="路径_12" data-name="路径 12" d="M107.655,33.689V49.244h-3.087V33.689Z" transform="translate(-104.568 -33.267)" fill="#fff"/>
          <path id="路径_13" data-name="路径 13" d="M120.312,42.421v6.823h-2.884V42.777a2.075,2.075,0,0,0-2.214-2.288c-1.409,0-2.46.822-2.46,2.755v6h-2.885V38.133h2.885v1.245a3.807,3.807,0,0,1,3.331-1.555C118.456,37.823,120.312,39.467,120.312,42.421Z" transform="translate(-104.568 -33.267)" fill="#fff"/>
          <path id="路径_14" data-name="路径 14" d="M133.865,44.733a4.586,4.586,0,0,1-4.875,4.511h-6.642V33.689h6.172a4.463,4.463,0,0,1,4.763,4.378,3.841,3.841,0,0,1-1.475,3.111A3.938,3.938,0,0,1,133.865,44.733Zm-8.431-8.177v3.422h3.087a1.711,1.711,0,0,0,0-3.422Zm5.368,7.977a1.763,1.763,0,0,0-1.811-1.822h-3.557v3.667h3.557A1.77,1.77,0,0,0,130.8,44.533Z" transform="translate(-104.568 -33.267)" fill="#fff"/>
          <path id="路径_15" data-name="路径 15" d="M134.849,35.044a1.778,1.778,0,1,1,1.766,1.756A1.779,1.779,0,0,1,134.849,35.044Zm.335,3.089h2.885V49.244h-2.885Z" transform="translate(-104.568 -33.267)" fill="#fff"/>
          <path id="路径_16" data-name="路径 16" d="M148.624,46.555v2.689h-8.833V47.333l4.718-6.511h-4.494V38.133H148.4v1.912l-4.741,6.51Z" transform="translate(-104.568 -33.267)" fill="#fff"/>
        </g>
      </g>
    </g>
  </g>
</svg>
